<mxfile host="app.diagrams.net" agent="Mozilla/5.0 (Windows NT 10.0; Win64; x64) AppleWebKit/537.36 (KHTML, like Gecko) Chrome/136.0.0.0 Safari/537.36" version="26.2.14">
  <diagram name="Sayfa -1" id="X-VM2zPhGA3CFvxgHZqU">
    <mxGraphModel dx="2135" dy="878" grid="1" gridSize="10" guides="1" tooltips="1" connect="1" arrows="1" fold="1" page="1" pageScale="1" pageWidth="827" pageHeight="1169" math="0" shadow="0">
      <root>
        <mxCell id="0" />
        <mxCell id="1" parent="0" />
        <mxCell id="dp5F_s6Nj8RVhwZsUuF0-4" value="Müşteri" style="shape=umlActor;verticalLabelPosition=bottom;verticalAlign=top;html=1;outlineConnect=0;textShadow=0;" parent="1" vertex="1">
          <mxGeometry x="109" y="455" width="30" height="60" as="geometry" />
        </mxCell>
        <mxCell id="dp5F_s6Nj8RVhwZsUuF0-6" value="Stoktaki Araçları Sorgulama" style="ellipse;whiteSpace=wrap;html=1;" parent="1" vertex="1">
          <mxGeometry x="89" y="670" width="120" height="80" as="geometry" />
        </mxCell>
        <mxCell id="dp5F_s6Nj8RVhwZsUuF0-7" value="Sipariş Oluşturma" style="ellipse;whiteSpace=wrap;html=1;" parent="1" vertex="1">
          <mxGeometry x="240" y="230" width="120" height="80" as="geometry" />
        </mxCell>
        <mxCell id="dp5F_s6Nj8RVhwZsUuF0-9" value="Araç Çekme" style="ellipse;whiteSpace=wrap;html=1;" parent="1" vertex="1">
          <mxGeometry x="669" y="680" width="120" height="80" as="geometry" />
        </mxCell>
        <mxCell id="dp5F_s6Nj8RVhwZsUuF0-10" value="" style="endArrow=classic;html=1;rounded=0;exitX=1;exitY=0.25;exitDx=0;exitDy=0;entryX=0.5;entryY=0;entryDx=0;entryDy=0;" parent="1" source="PK9hX_vZC2HyedBlvUml-5" target="dp5F_s6Nj8RVhwZsUuF0-9" edge="1">
          <mxGeometry width="50" height="50" relative="1" as="geometry">
            <mxPoint x="464" y="615" as="sourcePoint" />
            <mxPoint x="559" y="665" as="targetPoint" />
          </mxGeometry>
        </mxCell>
        <mxCell id="dp5F_s6Nj8RVhwZsUuF0-11" value="" style="endArrow=classic;html=1;rounded=0;exitX=0.5;exitY=0;exitDx=0;exitDy=0;entryX=0.5;entryY=1;entryDx=0;entryDy=0;" parent="1" source="dp5F_s6Nj8RVhwZsUuF0-9" target="PK9hX_vZC2HyedBlvUml-3" edge="1">
          <mxGeometry width="50" height="50" relative="1" as="geometry">
            <mxPoint x="519" y="675" as="sourcePoint" />
            <mxPoint x="689" y="525" as="targetPoint" />
          </mxGeometry>
        </mxCell>
        <mxCell id="dp5F_s6Nj8RVhwZsUuF0-17" value="" style="endArrow=none;html=1;rounded=0;exitX=0;exitY=1;exitDx=0;exitDy=0;exitPerimeter=0;entryX=0.5;entryY=0;entryDx=0;entryDy=0;" parent="1" source="dp5F_s6Nj8RVhwZsUuF0-4" target="dp5F_s6Nj8RVhwZsUuF0-6" edge="1">
          <mxGeometry width="50" height="50" relative="1" as="geometry">
            <mxPoint x="179" y="685" as="sourcePoint" />
            <mxPoint x="229" y="635" as="targetPoint" />
          </mxGeometry>
        </mxCell>
        <mxCell id="dp5F_s6Nj8RVhwZsUuF0-18" value="" style="endArrow=none;html=1;rounded=0;exitX=0.5;exitY=0;exitDx=0;exitDy=0;exitPerimeter=0;entryX=0;entryY=0.5;entryDx=0;entryDy=0;" parent="1" source="dp5F_s6Nj8RVhwZsUuF0-4" target="dp5F_s6Nj8RVhwZsUuF0-7" edge="1">
          <mxGeometry width="50" height="50" relative="1" as="geometry">
            <mxPoint x="189" y="361" as="sourcePoint" />
            <mxPoint x="246.5" y="515" as="targetPoint" />
          </mxGeometry>
        </mxCell>
        <mxCell id="dp5F_s6Nj8RVhwZsUuF0-22" value="Test Sürüşü Yapma" style="ellipse;whiteSpace=wrap;html=1;" parent="1" vertex="1">
          <mxGeometry x="229" y="455" width="120" height="80" as="geometry" />
        </mxCell>
        <mxCell id="dp5F_s6Nj8RVhwZsUuF0-26" value="" style="endArrow=none;html=1;rounded=0;exitX=0.5;exitY=0.5;exitDx=0;exitDy=0;exitPerimeter=0;entryX=0;entryY=0.5;entryDx=0;entryDy=0;" parent="1" source="dp5F_s6Nj8RVhwZsUuF0-4" target="dp5F_s6Nj8RVhwZsUuF0-22" edge="1">
          <mxGeometry width="50" height="50" relative="1" as="geometry">
            <mxPoint x="339" y="585" as="sourcePoint" />
            <mxPoint x="389" y="535" as="targetPoint" />
          </mxGeometry>
        </mxCell>
        <mxCell id="dp5F_s6Nj8RVhwZsUuF0-31" value="Satışı Onaylama" style="ellipse;whiteSpace=wrap;html=1;" parent="1" vertex="1">
          <mxGeometry x="479" y="330" width="120" height="80" as="geometry" />
        </mxCell>
        <mxCell id="dp5F_s6Nj8RVhwZsUuF0-32" value="" style="endArrow=none;html=1;rounded=0;exitX=0.25;exitY=0;exitDx=0;exitDy=0;entryX=1;entryY=1;entryDx=0;entryDy=0;" parent="1" source="PK9hX_vZC2HyedBlvUml-2" target="dp5F_s6Nj8RVhwZsUuF0-31" edge="1">
          <mxGeometry width="50" height="50" relative="1" as="geometry">
            <mxPoint x="696.5" y="471" as="sourcePoint" />
            <mxPoint x="599" y="335" as="targetPoint" />
          </mxGeometry>
        </mxCell>
        <mxCell id="PK9hX_vZC2HyedBlvUml-1" value="" style="fontStyle=1;align=center;verticalAlign=middle;childLayout=stackLayout;horizontal=1;horizontalStack=0;resizeParent=1;resizeParentMax=0;resizeLast=0;marginBottom=0;" parent="1" vertex="1">
          <mxGeometry x="669" y="480" width="120" height="40" as="geometry" />
        </mxCell>
        <mxCell id="PK9hX_vZC2HyedBlvUml-2" value="&amp;lt;&amp;lt;actor&amp;gt;&amp;gt;" style="html=1;align=center;spacing=0;verticalAlign=middle;strokeColor=none;fillColor=none;whiteSpace=wrap;spacingTop=3;" parent="PK9hX_vZC2HyedBlvUml-1" vertex="1">
          <mxGeometry width="120" height="20" as="geometry" />
        </mxCell>
        <mxCell id="PK9hX_vZC2HyedBlvUml-3" value="Bayi" style="html=1;align=center;spacing=0;verticalAlign=middle;strokeColor=none;fillColor=none;whiteSpace=wrap;spacingBottom=4;fontStyle=1" parent="PK9hX_vZC2HyedBlvUml-1" vertex="1">
          <mxGeometry y="20" width="120" height="20" as="geometry" />
        </mxCell>
        <mxCell id="PK9hX_vZC2HyedBlvUml-4" value="" style="fontStyle=1;align=center;verticalAlign=middle;childLayout=stackLayout;horizontal=1;horizontalStack=0;resizeParent=1;resizeParentMax=0;resizeLast=0;marginBottom=0;" parent="1" vertex="1">
          <mxGeometry x="519" y="590" width="120" height="40" as="geometry" />
        </mxCell>
        <mxCell id="PK9hX_vZC2HyedBlvUml-5" value="&amp;lt;&amp;lt;actor&amp;gt;&amp;gt;" style="html=1;align=center;spacing=0;verticalAlign=middle;strokeColor=none;fillColor=none;whiteSpace=wrap;spacingTop=3;" parent="PK9hX_vZC2HyedBlvUml-4" vertex="1">
          <mxGeometry width="120" height="20" as="geometry" />
        </mxCell>
        <mxCell id="PK9hX_vZC2HyedBlvUml-6" value="Depo" style="html=1;align=center;spacing=0;verticalAlign=middle;strokeColor=none;fillColor=none;whiteSpace=wrap;spacingBottom=4;fontStyle=1" parent="PK9hX_vZC2HyedBlvUml-4" vertex="1">
          <mxGeometry y="20" width="120" height="20" as="geometry" />
        </mxCell>
        <mxCell id="dWlnRMjQW8WXtGIZt7kH-2" value="Araç Ekleme" style="ellipse;whiteSpace=wrap;html=1;" parent="1" vertex="1">
          <mxGeometry x="519" y="680" width="120" height="80" as="geometry" />
        </mxCell>
        <mxCell id="dWlnRMjQW8WXtGIZt7kH-3" value="Araç Stoğu Güncelleme" style="ellipse;whiteSpace=wrap;html=1;" parent="1" vertex="1">
          <mxGeometry x="369" y="680" width="120" height="80" as="geometry" />
        </mxCell>
        <mxCell id="dWlnRMjQW8WXtGIZt7kH-6" value="Test Sürüşü Talep Etme" style="ellipse;whiteSpace=wrap;html=1;" parent="1" vertex="1">
          <mxGeometry x="229" y="600" width="120" height="80" as="geometry" />
        </mxCell>
        <mxCell id="dWlnRMjQW8WXtGIZt7kH-7" value="Test Sürüşü Onaylama" style="ellipse;whiteSpace=wrap;html=1;" parent="1" vertex="1">
          <mxGeometry x="489" y="455" width="120" height="80" as="geometry" />
        </mxCell>
        <mxCell id="dWlnRMjQW8WXtGIZt7kH-9" value="" style="endArrow=none;html=1;rounded=0;exitX=1;exitY=1;exitDx=0;exitDy=0;exitPerimeter=0;entryX=0;entryY=0.5;entryDx=0;entryDy=0;" parent="1" source="dp5F_s6Nj8RVhwZsUuF0-4" target="dWlnRMjQW8WXtGIZt7kH-6" edge="1">
          <mxGeometry width="50" height="50" relative="1" as="geometry">
            <mxPoint x="209" y="550" as="sourcePoint" />
            <mxPoint x="259" y="500" as="targetPoint" />
          </mxGeometry>
        </mxCell>
        <mxCell id="dWlnRMjQW8WXtGIZt7kH-11" value="" style="html=1;labelBackgroundColor=#ffffff;startArrow=none;startFill=0;startSize=6;endArrow=classic;endFill=1;endSize=6;jettySize=auto;orthogonalLoop=1;strokeWidth=1;dashed=1;fontSize=14;rounded=0;entryX=1;entryY=0;entryDx=0;entryDy=0;exitX=0;exitY=1;exitDx=0;exitDy=0;" parent="1" source="dWlnRMjQW8WXtGIZt7kH-7" target="dWlnRMjQW8WXtGIZt7kH-6" edge="1">
          <mxGeometry width="60" height="60" relative="1" as="geometry">
            <mxPoint x="330" y="570" as="sourcePoint" />
            <mxPoint x="559" y="230" as="targetPoint" />
          </mxGeometry>
        </mxCell>
        <mxCell id="dWlnRMjQW8WXtGIZt7kH-12" value="&amp;lt;&amp;lt;include&amp;gt;&amp;gt;" style="text;html=1;align=center;verticalAlign=middle;whiteSpace=wrap;rounded=0;" parent="1" vertex="1">
          <mxGeometry x="369" y="535" width="60" height="35" as="geometry" />
        </mxCell>
        <mxCell id="dWlnRMjQW8WXtGIZt7kH-14" value="" style="html=1;labelBackgroundColor=#ffffff;startArrow=none;startFill=0;startSize=6;endArrow=classic;endFill=1;endSize=6;jettySize=auto;orthogonalLoop=1;strokeWidth=1;dashed=1;fontSize=14;rounded=0;exitX=1;exitY=0.5;exitDx=0;exitDy=0;entryX=0;entryY=0.5;entryDx=0;entryDy=0;" parent="1" source="dp5F_s6Nj8RVhwZsUuF0-22" target="dWlnRMjQW8WXtGIZt7kH-7" edge="1">
          <mxGeometry width="60" height="60" relative="1" as="geometry">
            <mxPoint x="409" y="510" as="sourcePoint" />
            <mxPoint x="410" y="580" as="targetPoint" />
          </mxGeometry>
        </mxCell>
        <mxCell id="dWlnRMjQW8WXtGIZt7kH-15" value="&amp;lt;&amp;lt;include&amp;gt;&amp;gt;" style="text;html=1;align=center;verticalAlign=middle;whiteSpace=wrap;rounded=0;" parent="1" vertex="1">
          <mxGeometry x="389" y="470" width="60" height="30" as="geometry" />
        </mxCell>
        <mxCell id="dWlnRMjQW8WXtGIZt7kH-16" value="" style="endArrow=none;html=1;rounded=0;exitX=0;exitY=0;exitDx=0;exitDy=0;entryX=1;entryY=0.5;entryDx=0;entryDy=0;" parent="1" source="PK9hX_vZC2HyedBlvUml-3" target="dWlnRMjQW8WXtGIZt7kH-7" edge="1">
          <mxGeometry width="50" height="50" relative="1" as="geometry">
            <mxPoint x="449" y="440" as="sourcePoint" />
            <mxPoint x="499" y="390" as="targetPoint" />
          </mxGeometry>
        </mxCell>
        <mxCell id="dWlnRMjQW8WXtGIZt7kH-18" value="Aracı Satın Alma" style="ellipse;whiteSpace=wrap;html=1;" parent="1" vertex="1">
          <mxGeometry x="229" y="340" width="120" height="80" as="geometry" />
        </mxCell>
        <mxCell id="dWlnRMjQW8WXtGIZt7kH-19" value="" style="endArrow=none;html=1;rounded=0;exitX=0.75;exitY=0.1;exitDx=0;exitDy=0;exitPerimeter=0;entryX=0;entryY=0.5;entryDx=0;entryDy=0;" parent="1" source="dp5F_s6Nj8RVhwZsUuF0-4" target="dWlnRMjQW8WXtGIZt7kH-18" edge="1">
          <mxGeometry width="50" height="50" relative="1" as="geometry">
            <mxPoint x="219" y="365" as="sourcePoint" />
            <mxPoint x="244" y="250" as="targetPoint" />
          </mxGeometry>
        </mxCell>
        <mxCell id="dWlnRMjQW8WXtGIZt7kH-20" value="" style="html=1;labelBackgroundColor=#ffffff;startArrow=none;startFill=0;startSize=6;endArrow=classic;endFill=1;endSize=6;jettySize=auto;orthogonalLoop=1;strokeWidth=1;dashed=1;fontSize=14;rounded=0;exitX=1;exitY=0.5;exitDx=0;exitDy=0;entryX=0;entryY=0.5;entryDx=0;entryDy=0;" parent="1" source="dWlnRMjQW8WXtGIZt7kH-18" target="dp5F_s6Nj8RVhwZsUuF0-31" edge="1">
          <mxGeometry width="60" height="60" relative="1" as="geometry">
            <mxPoint x="507" y="592" as="sourcePoint" />
            <mxPoint x="350" y="420" as="targetPoint" />
          </mxGeometry>
        </mxCell>
        <mxCell id="dWlnRMjQW8WXtGIZt7kH-21" value="" style="html=1;labelBackgroundColor=#ffffff;startArrow=none;startFill=0;startSize=6;endArrow=classic;endFill=1;endSize=6;jettySize=auto;orthogonalLoop=1;strokeWidth=1;dashed=1;fontSize=14;rounded=0;exitX=0.5;exitY=0;exitDx=0;exitDy=0;entryX=0.5;entryY=1;entryDx=0;entryDy=0;" parent="1" source="dp5F_s6Nj8RVhwZsUuF0-7" target="dWlnRMjQW8WXtGIZt7kH-40" edge="1">
          <mxGeometry width="60" height="60" relative="1" as="geometry">
            <mxPoint x="517" y="602" as="sourcePoint" />
            <mxPoint x="451" y="528" as="targetPoint" />
          </mxGeometry>
        </mxCell>
        <mxCell id="dWlnRMjQW8WXtGIZt7kH-22" value="&amp;lt;&amp;lt;include&amp;gt;&amp;gt;" style="text;html=1;align=center;verticalAlign=middle;whiteSpace=wrap;rounded=0;" parent="1" vertex="1">
          <mxGeometry x="369" y="350" width="60" height="30" as="geometry" />
        </mxCell>
        <mxCell id="dWlnRMjQW8WXtGIZt7kH-23" value="&amp;lt;&amp;lt;include&amp;gt;&amp;gt;" style="text;html=1;align=center;verticalAlign=middle;whiteSpace=wrap;rounded=0;" parent="1" vertex="1">
          <mxGeometry x="320" y="190" width="60" height="30" as="geometry" />
        </mxCell>
        <mxCell id="dWlnRMjQW8WXtGIZt7kH-24" value="Araç Seçimi" style="ellipse;whiteSpace=wrap;html=1;" parent="1" vertex="1">
          <mxGeometry x="229" y="735" width="120" height="80" as="geometry" />
        </mxCell>
        <mxCell id="dWlnRMjQW8WXtGIZt7kH-25" value="" style="html=1;labelBackgroundColor=#ffffff;startArrow=none;startFill=0;startSize=6;endArrow=classic;endFill=1;endSize=6;jettySize=auto;orthogonalLoop=1;strokeWidth=1;dashed=1;fontSize=14;rounded=0;exitX=0.5;exitY=1;exitDx=0;exitDy=0;entryX=0.5;entryY=0;entryDx=0;entryDy=0;" parent="1" source="dWlnRMjQW8WXtGIZt7kH-6" target="dWlnRMjQW8WXtGIZt7kH-24" edge="1">
          <mxGeometry width="60" height="60" relative="1" as="geometry">
            <mxPoint x="299" y="590" as="sourcePoint" />
            <mxPoint x="357" y="518" as="targetPoint" />
          </mxGeometry>
        </mxCell>
        <mxCell id="dWlnRMjQW8WXtGIZt7kH-27" value="Araç Seçimi" style="ellipse;whiteSpace=wrap;html=1;" parent="1" vertex="1">
          <mxGeometry x="70" y="115" width="120" height="80" as="geometry" />
        </mxCell>
        <mxCell id="dWlnRMjQW8WXtGIZt7kH-29" value="" style="html=1;labelBackgroundColor=#ffffff;startArrow=none;startFill=0;startSize=6;endArrow=classic;endFill=1;endSize=6;jettySize=auto;orthogonalLoop=1;strokeWidth=1;dashed=1;fontSize=14;rounded=0;exitX=0;exitY=0;exitDx=0;exitDy=0;entryX=1;entryY=1;entryDx=0;entryDy=0;" parent="1" source="dp5F_s6Nj8RVhwZsUuF0-7" target="dWlnRMjQW8WXtGIZt7kH-27" edge="1">
          <mxGeometry width="60" height="60" relative="1" as="geometry">
            <mxPoint x="299" y="670" as="sourcePoint" />
            <mxPoint x="189" y="290" as="targetPoint" />
          </mxGeometry>
        </mxCell>
        <mxCell id="dWlnRMjQW8WXtGIZt7kH-31" value="Bilgi Girişi" style="ellipse;whiteSpace=wrap;html=1;" parent="1" vertex="1">
          <mxGeometry x="519" y="810" width="120" height="80" as="geometry" />
        </mxCell>
        <mxCell id="dWlnRMjQW8WXtGIZt7kH-32" value="" style="html=1;labelBackgroundColor=#ffffff;startArrow=none;startFill=0;startSize=6;endArrow=classic;endFill=1;endSize=6;jettySize=auto;orthogonalLoop=1;strokeWidth=1;dashed=1;fontSize=14;rounded=0;exitX=0.5;exitY=1;exitDx=0;exitDy=0;entryX=0;entryY=0;entryDx=0;entryDy=0;" parent="1" target="dWlnRMjQW8WXtGIZt7kH-31" edge="1">
          <mxGeometry width="60" height="60" relative="1" as="geometry">
            <mxPoint x="429" y="760" as="sourcePoint" />
            <mxPoint x="329" y="625" as="targetPoint" />
          </mxGeometry>
        </mxCell>
        <mxCell id="dWlnRMjQW8WXtGIZt7kH-33" value="" style="html=1;labelBackgroundColor=#ffffff;startArrow=none;startFill=0;startSize=6;endArrow=classic;endFill=1;endSize=6;jettySize=auto;orthogonalLoop=1;strokeWidth=1;dashed=1;fontSize=14;rounded=0;exitX=0.5;exitY=1;exitDx=0;exitDy=0;entryX=0.5;entryY=0;entryDx=0;entryDy=0;" parent="1" source="dWlnRMjQW8WXtGIZt7kH-2" target="dWlnRMjQW8WXtGIZt7kH-31" edge="1">
          <mxGeometry width="60" height="60" relative="1" as="geometry">
            <mxPoint x="339" y="560" as="sourcePoint" />
            <mxPoint x="339" y="635" as="targetPoint" />
          </mxGeometry>
        </mxCell>
        <mxCell id="dWlnRMjQW8WXtGIZt7kH-34" value="" style="html=1;labelBackgroundColor=#ffffff;startArrow=none;startFill=0;startSize=6;endArrow=classic;endFill=1;endSize=6;jettySize=auto;orthogonalLoop=1;strokeWidth=1;dashed=1;fontSize=14;rounded=0;exitX=0.5;exitY=1;exitDx=0;exitDy=0;entryX=1;entryY=0;entryDx=0;entryDy=0;" parent="1" source="dp5F_s6Nj8RVhwZsUuF0-9" target="dWlnRMjQW8WXtGIZt7kH-31" edge="1">
          <mxGeometry width="60" height="60" relative="1" as="geometry">
            <mxPoint x="349" y="570" as="sourcePoint" />
            <mxPoint x="349" y="645" as="targetPoint" />
          </mxGeometry>
        </mxCell>
        <mxCell id="dWlnRMjQW8WXtGIZt7kH-37" value="&amp;lt;&amp;lt;include&amp;gt;&amp;gt;" style="text;html=1;align=center;verticalAlign=middle;whiteSpace=wrap;rounded=0;" parent="1" vertex="1">
          <mxGeometry x="419" y="780" width="60" height="30" as="geometry" />
        </mxCell>
        <mxCell id="dWlnRMjQW8WXtGIZt7kH-38" value="&amp;lt;&amp;lt;include&amp;gt;&amp;gt;" style="text;html=1;align=center;verticalAlign=middle;whiteSpace=wrap;rounded=0;" parent="1" vertex="1">
          <mxGeometry x="519" y="760" width="60" height="30" as="geometry" />
        </mxCell>
        <mxCell id="dWlnRMjQW8WXtGIZt7kH-39" value="&amp;lt;&amp;lt;include&amp;gt;&amp;gt;" style="text;html=1;align=center;verticalAlign=middle;whiteSpace=wrap;rounded=0;" parent="1" vertex="1">
          <mxGeometry x="629" y="760" width="60" height="30" as="geometry" />
        </mxCell>
        <mxCell id="dWlnRMjQW8WXtGIZt7kH-40" value="Fiyat Teklifi Alma" style="ellipse;whiteSpace=wrap;html=1;" parent="1" vertex="1">
          <mxGeometry x="269" y="80" width="120" height="80" as="geometry" />
        </mxCell>
        <mxCell id="dWlnRMjQW8WXtGIZt7kH-43" value="" style="html=1;labelBackgroundColor=#ffffff;startArrow=none;startFill=0;startSize=6;endArrow=classic;endFill=1;endSize=6;jettySize=auto;orthogonalLoop=1;strokeWidth=1;dashed=1;fontSize=14;rounded=0;exitX=0;exitY=0.5;exitDx=0;exitDy=0;entryX=1;entryY=0;entryDx=0;entryDy=0;" parent="1" source="dWlnRMjQW8WXtGIZt7kH-40" target="dWlnRMjQW8WXtGIZt7kH-27" edge="1">
          <mxGeometry width="60" height="60" relative="1" as="geometry">
            <mxPoint x="257" y="382" as="sourcePoint" />
            <mxPoint x="151" y="228" as="targetPoint" />
          </mxGeometry>
        </mxCell>
        <mxCell id="dWlnRMjQW8WXtGIZt7kH-46" value="" style="endArrow=classic;html=1;rounded=0;exitX=0.5;exitY=0;exitDx=0;exitDy=0;entryX=1;entryY=0.5;entryDx=0;entryDy=0;" parent="1" source="PK9hX_vZC2HyedBlvUml-2" target="dWlnRMjQW8WXtGIZt7kH-40" edge="1">
          <mxGeometry width="50" height="50" relative="1" as="geometry">
            <mxPoint x="629" y="300" as="sourcePoint" />
            <mxPoint x="679" y="250" as="targetPoint" />
          </mxGeometry>
        </mxCell>
        <mxCell id="dWlnRMjQW8WXtGIZt7kH-47" value="" style="endArrow=classic;html=1;rounded=0;exitX=0.5;exitY=0;exitDx=0;exitDy=0;entryX=0;entryY=0.3333333333333333;entryDx=0;entryDy=0;entryPerimeter=0;" parent="1" source="dWlnRMjQW8WXtGIZt7kH-40" target="dp5F_s6Nj8RVhwZsUuF0-4" edge="1">
          <mxGeometry width="50" height="50" relative="1" as="geometry">
            <mxPoint x="29" y="370" as="sourcePoint" />
            <mxPoint x="79" y="320" as="targetPoint" />
            <Array as="points">
              <mxPoint x="39" y="80" />
              <mxPoint x="39" y="475" />
            </Array>
          </mxGeometry>
        </mxCell>
        <mxCell id="mmM-YtHXsCQYLr_GmmkG-4" value="&amp;lt;&amp;lt;include&amp;gt;&amp;gt;" style="text;html=1;align=center;verticalAlign=middle;whiteSpace=wrap;rounded=0;" vertex="1" parent="1">
          <mxGeometry x="190" y="90" width="60" height="30" as="geometry" />
        </mxCell>
        <mxCell id="mmM-YtHXsCQYLr_GmmkG-5" value="&amp;lt;&amp;lt;include&amp;gt;&amp;gt;" style="text;html=1;align=center;verticalAlign=middle;whiteSpace=wrap;rounded=0;" vertex="1" parent="1">
          <mxGeometry x="209" y="190" width="60" height="30" as="geometry" />
        </mxCell>
        <mxCell id="mmM-YtHXsCQYLr_GmmkG-6" value="" style="html=1;labelBackgroundColor=#ffffff;startArrow=none;startFill=0;startSize=6;endArrow=classic;endFill=1;endSize=6;jettySize=auto;orthogonalLoop=1;strokeWidth=1;dashed=1;fontSize=14;rounded=0;exitX=0;exitY=0;exitDx=0;exitDy=0;entryX=0.977;entryY=0.594;entryDx=0;entryDy=0;entryPerimeter=0;" edge="1" parent="1" source="dp5F_s6Nj8RVhwZsUuF0-31" target="dp5F_s6Nj8RVhwZsUuF0-7">
          <mxGeometry width="60" height="60" relative="1" as="geometry">
            <mxPoint x="359" y="390" as="sourcePoint" />
            <mxPoint x="489" y="380" as="targetPoint" />
          </mxGeometry>
        </mxCell>
        <mxCell id="mmM-YtHXsCQYLr_GmmkG-7" value="&amp;lt;&amp;lt;include&amp;gt;&amp;gt;" style="text;html=1;align=center;verticalAlign=middle;whiteSpace=wrap;rounded=0;" vertex="1" parent="1">
          <mxGeometry x="413" y="270" width="60" height="30" as="geometry" />
        </mxCell>
        <mxCell id="mmM-YtHXsCQYLr_GmmkG-8" value="&amp;lt;&amp;lt;include&amp;gt;&amp;gt;" style="text;html=1;align=center;verticalAlign=middle;whiteSpace=wrap;rounded=0;" vertex="1" parent="1">
          <mxGeometry x="229" y="690" width="60" height="35" as="geometry" />
        </mxCell>
        <mxCell id="mmM-YtHXsCQYLr_GmmkG-9" value="Müşteri ve Araç Raporlamalarını&lt;div&gt;Görüntüleme&lt;/div&gt;" style="ellipse;whiteSpace=wrap;html=1;" vertex="1" parent="1">
          <mxGeometry x="650" y="290" width="120" height="80" as="geometry" />
        </mxCell>
        <mxCell id="mmM-YtHXsCQYLr_GmmkG-11" value="" style="endArrow=none;html=1;rounded=0;entryX=0.5;entryY=1;entryDx=0;entryDy=0;exitX=0.75;exitY=0;exitDx=0;exitDy=0;" edge="1" parent="1" source="PK9hX_vZC2HyedBlvUml-2" target="mmM-YtHXsCQYLr_GmmkG-9">
          <mxGeometry width="50" height="50" relative="1" as="geometry">
            <mxPoint x="750" y="450" as="sourcePoint" />
            <mxPoint x="800" y="400" as="targetPoint" />
          </mxGeometry>
        </mxCell>
        <mxCell id="mmM-YtHXsCQYLr_GmmkG-12" value="" style="endArrow=none;html=1;rounded=0;entryX=0;entryY=0.25;entryDx=0;entryDy=0;exitX=0.5;exitY=0;exitDx=0;exitDy=0;" edge="1" parent="1" source="dWlnRMjQW8WXtGIZt7kH-3" target="PK9hX_vZC2HyedBlvUml-6">
          <mxGeometry width="50" height="50" relative="1" as="geometry">
            <mxPoint x="460" y="670" as="sourcePoint" />
            <mxPoint x="510" y="620" as="targetPoint" />
          </mxGeometry>
        </mxCell>
        <mxCell id="mmM-YtHXsCQYLr_GmmkG-13" value="" style="endArrow=none;html=1;rounded=0;entryX=0.5;entryY=1;entryDx=0;entryDy=0;exitX=0.5;exitY=0;exitDx=0;exitDy=0;" edge="1" parent="1" source="dWlnRMjQW8WXtGIZt7kH-2" target="PK9hX_vZC2HyedBlvUml-6">
          <mxGeometry width="50" height="50" relative="1" as="geometry">
            <mxPoint x="439" y="690" as="sourcePoint" />
            <mxPoint x="529" y="625" as="targetPoint" />
          </mxGeometry>
        </mxCell>
        <mxCell id="mmM-YtHXsCQYLr_GmmkG-22" value="" style="html=1;labelBackgroundColor=#ffffff;startArrow=none;startFill=0;startSize=6;endArrow=classic;endFill=1;endSize=6;jettySize=auto;orthogonalLoop=1;strokeWidth=1;dashed=1;fontSize=14;rounded=0;exitX=0;exitY=0;exitDx=0;exitDy=0;entryX=0.5;entryY=1;entryDx=0;entryDy=0;" edge="1" parent="1" source="dWlnRMjQW8WXtGIZt7kH-18" target="dWlnRMjQW8WXtGIZt7kH-27">
          <mxGeometry width="60" height="60" relative="1" as="geometry">
            <mxPoint x="222" y="329" as="sourcePoint" />
            <mxPoint x="136" y="270" as="targetPoint" />
          </mxGeometry>
        </mxCell>
        <mxCell id="mmM-YtHXsCQYLr_GmmkG-25" value="&amp;lt;&amp;lt;include&amp;gt;&amp;gt;" style="text;html=1;align=center;verticalAlign=middle;whiteSpace=wrap;rounded=0;" vertex="1" parent="1">
          <mxGeometry x="109" y="240" width="60" height="30" as="geometry" />
        </mxCell>
      </root>
    </mxGraphModel>
  </diagram>
</mxfile>
